<svg width="24" height="24" viewBox="6 40 24 24" fill="none" xmlns="http://www.w3.org/2000/svg">
<path d="M26.4826 43.5139C24.3109 41.344 21.3114 40 17.998 40C14.6846 40 11.6851 41.344 9.51341 43.5139C7.34378 45.6859 6 48.6858 6 51.9998C6 55.0877 7.16581 57.9017 9.08149 60.0296C9.31145 60.2836 9.70938 60.2916 9.95134 60.0496L10.8052 59.1957C11.0292 58.9717 11.0392 58.6117 10.8272 58.3737C9.31945 56.6777 8.4016 54.4437 8.4016 51.9998C8.4016 49.3538 9.47742 46.9539 11.2151 45.2139C12.9528 43.4759 15.3524 42.4 18 42.4C20.6476 42.4 23.0452 43.4759 24.7849 45.2139C26.5226 46.9519 27.5984 49.3518 27.5984 51.9998C27.5984 54.4437 26.6806 56.6757 25.1728 58.3737C24.9608 58.6117 24.9708 58.9717 25.1948 59.1957L26.0487 60.0496C26.2906 60.2916 26.6886 60.2836 26.9185 60.0296C28.8342 57.9037 30 55.0877 30 51.9998C30 48.6858 28.6562 45.6859 26.4866 43.5139H26.4826Z" fill="url(#paint0_linear)"/>
<path d="M23.301 46.696C21.9432 45.338 20.0695 44.5 17.9979 44.5C15.9262 44.5 14.0526 45.34 12.6948 46.696C11.337 48.0539 10.4991 49.9279 10.4991 51.9999C10.4991 53.8418 11.163 55.5278 12.2629 56.8318C12.4868 57.0958 12.8927 57.1038 13.1367 56.8598L13.9906 56.0058C14.2045 55.7918 14.2285 55.4478 14.0366 55.2118C13.3227 54.3338 12.8967 53.2158 12.8967 51.9999C12.8967 50.5939 13.4687 49.3179 14.3925 48.3959C15.3163 47.4719 16.5901 46.9 17.9959 46.9C19.4017 46.9 20.6774 47.4719 21.5993 48.3959C22.5231 49.3199 23.095 50.5939 23.095 51.9999C23.095 53.2158 22.6671 54.3338 21.9552 55.2118C21.7633 55.4478 21.7873 55.7918 22.0012 56.0058L22.8551 56.8598C23.099 57.1038 23.507 57.0958 23.7289 56.8318C24.8308 55.5258 25.4926 53.8398 25.4926 51.9999C25.4926 49.9279 24.6528 48.0539 23.297 46.696H23.301Z" fill="url(#paint1_linear)"/>
<path d="M17.998 61.5999C15.3525 61.5999 12.9529 60.5239 11.2131 58.7859L9.51343 60.4859C11.6851 62.6579 14.6846 63.9998 17.998 63.9998C21.3115 63.9998 24.311 62.6559 26.4826 60.4859L24.7829 58.7859C23.0452 60.5239 20.6456 61.5999 17.998 61.5999Z" fill="white"/>
<path d="M17.9981 57.0999C16.5923 57.0999 15.3165 56.5279 14.3947 55.6039L12.697 57.3019C14.0547 58.6599 15.9284 59.4979 18.0001 59.4979C20.0717 59.4979 21.9454 58.6579 23.3032 57.3019L21.6055 55.6039C20.6816 56.5279 19.4078 57.0999 18.0021 57.0999H17.9981Z" fill="white"/>
<path d="M21.8251 58.8581L17.9978 61.128L14.1704 58.8581C13.9664 58.7361 13.7985 58.8021 13.7985 59.0061V63.79C13.7985 63.992 13.9664 64.058 14.1704 63.938L17.9978 61.668L21.8251 63.938C22.0291 64.06 22.1971 63.994 22.1971 63.79V59.0061C22.1971 58.8041 22.0291 58.7381 21.8251 58.8581Z" fill="url(#paint2_linear)"/>
<defs>
<linearGradient id="paint0_linear" x1="29.996" y1="50.1118" x2="6" y2="50.1118" gradientUnits="userSpaceOnUse">
<stop stop-color="#008CFF"/>
<stop offset="0.15" stop-color="#396FFF"/>
<stop offset="0.31" stop-color="#6A56FF"/>
<stop offset="0.46" stop-color="#9342FF"/>
<stop offset="0.6" stop-color="#B332FF"/>
<stop offset="0.75" stop-color="#C927FF"/>
<stop offset="0.88" stop-color="#D720FF"/>
<stop offset="1" stop-color="#DC1EFF"/>
</linearGradient>
<linearGradient id="paint1_linear" x1="25.4966" y1="50.7699" x2="10.4991" y2="50.7699" gradientUnits="userSpaceOnUse">
<stop stop-color="#008CFF"/>
<stop offset="0.15" stop-color="#396FFF"/>
<stop offset="0.31" stop-color="#6A56FF"/>
<stop offset="0.46" stop-color="#9342FF"/>
<stop offset="0.6" stop-color="#B332FF"/>
<stop offset="0.75" stop-color="#C927FF"/>
<stop offset="0.88" stop-color="#D720FF"/>
<stop offset="1" stop-color="#DC1EFF"/>
</linearGradient>
<linearGradient id="paint2_linear" x1="22.1971" y1="61.398" x2="13.7985" y2="61.398" gradientUnits="userSpaceOnUse">
<stop stop-color="#008CFF"/>
<stop offset="0.15" stop-color="#396FFF"/>
<stop offset="0.31" stop-color="#6A56FF"/>
<stop offset="0.46" stop-color="#9342FF"/>
<stop offset="0.6" stop-color="#B332FF"/>
<stop offset="0.75" stop-color="#C927FF"/>
<stop offset="0.88" stop-color="#D720FF"/>
<stop offset="1" stop-color="#DC1EFF"/>
</linearGradient>
</defs>
</svg>
