<svg preserveAspectRatio="none" width="100%" height="100%" overflow="visible" style="display: block;" viewBox="0 0 24 24" fill="none" xmlns="http://www.w3.org/2000/svg">
<g id="clipboard-list-regular-full 1">
<path id="Vector" d="M10.5 6H13.5C13.9987 6 14.4 5.59875 14.4 5.1C14.4 4.60125 13.9987 4.2 13.5 4.2H10.5C10.0012 4.2 9.6 4.60125 9.6 5.1C9.6 5.59875 10.0012 6 10.5 6ZM10.5 7.8C9.10875 7.8 7.965 6.75 7.815 5.4H7.2C6.87 5.4 6.6 5.67 6.6 6V19.2C6.6 19.53 6.87 19.8 7.2 19.8H16.8C17.13 19.8 17.4 19.53 17.4 19.2V6C17.4 5.67 17.13 5.4 16.8 5.4H16.185C16.035 6.75 14.8912 7.8 13.5 7.8H10.5ZM13.5 2.4C14.4375 2.4 15.2625 2.87625 15.7462 3.6H16.8C18.1237 3.6 19.2 4.67625 19.2 6V19.2C19.2 20.5238 18.1237 21.6 16.8 21.6H7.2C5.87625 21.6 4.8 20.5238 4.8 19.2V6C4.8 4.67625 5.87625 3.6 7.2 3.6H8.25375C8.7375 2.87625 9.5625 2.4 10.5 2.4H13.5ZM7.8 12C7.8 11.3363 8.33625 10.8 9 10.8C9.66375 10.8 10.2 11.3363 10.2 12C10.2 12.6638 9.66375 13.2 9 13.2C8.33625 13.2 7.8 12.6638 7.8 12ZM11.4 12C11.4 11.5013 11.8012 11.1 12.3 11.1H15.3C15.7987 11.1 16.2 11.5013 16.2 12C16.2 12.4988 15.7987 12.9 15.3 12.9H12.3C11.8012 12.9 11.4 12.4988 11.4 12ZM11.4 15.6C11.4 15.1013 11.8012 14.7 12.3 14.7H15.3C15.7987 14.7 16.2 15.1013 16.2 15.6C16.2 16.0988 15.7987 16.5 15.3 16.5H12.3C11.8012 16.5 11.4 16.0988 11.4 15.6ZM9 14.4C9.66375 14.4 10.2 14.9363 10.2 15.6C10.2 16.2638 9.66375 16.8 9 16.8C8.33625 16.8 7.8 16.2638 7.8 15.6C7.8 14.9363 8.33625 14.4 9 14.4Z" fill="var(--fill-0, #7008E7)"/>
</g>
</svg>
