<svg preserveAspectRatio="none" width="100%" height="100%" overflow="visible" style="display: block;" viewBox="0 0 20 20" fill="none" xmlns="http://www.w3.org/2000/svg">
<g id="file-invoice-dollar-regular-full 1">
<path id="Vector" d="M9.5 3.5H6C5.725 3.5 5.5 3.725 5.5 4V16C5.5 16.275 5.725 16.5 6 16.5H14C14.275 16.5 14.5 16.275 14.5 16V8.5H11.75C10.5063 8.5 9.5 7.49375 9.5 6.25V3.5ZM13.8781 7L11 4.12188V6.25C11 6.66563 11.3344 7 11.75 7H13.8781ZM4 4C4 2.89688 4.89688 2 6 2H10.1719C10.7031 2 11.2125 2.20938 11.5875 2.58438L15.4156 6.41563C15.7906 6.79063 16 7.3 16 7.83125V16C16 17.1031 15.1031 18 14 18H6C4.89688 18 4 17.1031 4 16V4ZM6.5 5.25C6.5 4.83438 6.83438 4.5 7.25 4.5H7.75C8.16563 4.5 8.5 4.83438 8.5 5.25C8.5 5.66563 8.16563 6 7.75 6H7.25C6.83438 6 6.5 5.66563 6.5 5.25ZM6.5 7.75C6.5 7.33438 6.83438 7 7.25 7H7.75C8.16563 7 8.5 7.33438 8.5 7.75C8.5 8.16563 8.16563 8.5 7.75 8.5H7.25C6.83438 8.5 6.5 8.16563 6.5 7.75ZM10.125 9.25C10.4688 9.25 10.75 9.53125 10.75 9.875V10H11C11.3438 10 11.625 10.2813 11.625 10.625C11.625 10.9688 11.3438 11.25 11 11.25H9.64375C9.49688 11.25 9.375 11.3688 9.375 11.5188C9.375 11.6469 9.46563 11.7563 9.59063 11.7813L10.6563 11.9938C11.3656 12.1344 11.875 12.7594 11.875 13.4813C11.875 14.1844 11.3969 14.775 10.75 14.9469V15.1219C10.75 15.4656 10.4688 15.7469 10.125 15.7469C9.78125 15.7469 9.5 15.4656 9.5 15.1219V14.9969H9C8.65625 14.9969 8.375 14.7156 8.375 14.3719C8.375 14.0281 8.65625 13.7469 9 13.7469H10.3563C10.5031 13.7469 10.625 13.6281 10.625 13.4781C10.625 13.35 10.5344 13.2406 10.4094 13.2156L9.34375 13.0063C8.63438 12.8656 8.125 12.2406 8.125 11.5188C8.125 10.7281 8.72813 10.0781 9.5 10.0063V9.875C9.5 9.53125 9.78125 9.25 10.125 9.25Z" fill="var(--fill-0, #334155)"/>
</g>
</svg>
