<svg preserveAspectRatio="none" width="100%" height="100%" overflow="visible" style="display: block;" viewBox="0 0 24 24" fill="none" xmlns="http://www.w3.org/2000/svg">
<g id="clipboard-list 1">
<path id="Vector" d="M10.0625 4.65625C10.2833 3.84766 11.0667 3.25 12 3.25C12.9333 3.25 13.7167 3.84766 13.9375 4.65625C14.0125 4.93359 14.2792 5.125 14.5833 5.125H15.3333C15.7 5.125 16 5.40625 16 5.75V7H12H8V5.75C8 5.40625 8.3 5.125 8.66667 5.125H9.41667C9.72083 5.125 9.9875 4.93359 10.0625 4.65625ZM12 2C10.6333 2 9.45833 2.77344 8.94583 3.875H8.66667C7.79583 3.875 7.05417 4.39844 6.77917 5.125H6.66667C5.19583 5.125 4 6.24609 4 7.625V19.5C4 20.8789 5.19583 22 6.66667 22H17.3333C18.8042 22 20 20.8789 20 19.5V7.625C20 6.24609 18.8042 5.125 17.3333 5.125H17.2208C16.9458 4.39844 16.2042 3.875 15.3333 3.875H15.0542C14.5417 2.77344 13.3667 2 12 2ZM17.3333 6.375C18.0708 6.375 18.6667 6.93359 18.6667 7.625V19.5C18.6667 20.1914 18.0708 20.75 17.3333 20.75H6.66667C5.92917 20.75 5.33333 20.1914 5.33333 19.5V7.625C5.33333 6.93359 5.92917 6.375 6.66667 6.375V7C6.66667 7.69141 7.2625 8.25 8 8.25H12H16C16.7375 8.25 17.3333 7.69141 17.3333 7V6.375ZM12.6667 5.125C12.6667 4.95924 12.5964 4.80027 12.4714 4.68306C12.3464 4.56585 12.1768 4.5 12 4.5C11.8232 4.5 11.6536 4.56585 11.5286 4.68306C11.4036 4.80027 11.3333 4.95924 11.3333 5.125C11.3333 5.29076 11.4036 5.44973 11.5286 5.56694C11.6536 5.68415 11.8232 5.75 12 5.75C12.1768 5.75 12.3464 5.68415 12.4714 5.56694C12.5964 5.44973 12.6667 5.29076 12.6667 5.125ZM9.66667 12.625C9.66667 12.5019 9.6408 12.38 9.59055 12.2662C9.54029 12.1525 9.46663 12.0491 9.37377 11.9621C9.28092 11.875 9.17068 11.806 9.04935 11.7589C8.92802 11.7117 8.79799 11.6875 8.66667 11.6875C8.53534 11.6875 8.40531 11.7117 8.28398 11.7589C8.16266 11.806 8.05242 11.875 7.95956 11.9621C7.8667 12.0491 7.79304 12.1525 7.74279 12.2662C7.69253 12.38 7.66667 12.5019 7.66667 12.625C7.66667 12.7481 7.69253 12.87 7.74279 12.9838C7.79304 13.0975 7.8667 13.2009 7.95956 13.2879C8.05242 13.375 8.16266 13.444 8.28398 13.4911C8.40531 13.5383 8.53534 13.5625 8.66667 13.5625C8.79799 13.5625 8.92802 13.5383 9.04935 13.4911C9.17068 13.444 9.28092 13.375 9.37377 13.2879C9.46663 13.2009 9.54029 13.0975 9.59055 12.9838C9.6408 12.87 9.66667 12.7481 9.66667 12.625ZM11.3333 12C10.9667 12 10.6667 12.2812 10.6667 12.625C10.6667 12.9688 10.9667 13.25 11.3333 13.25H15.3333C15.7 13.25 16 12.9688 16 12.625C16 12.2812 15.7 12 15.3333 12H11.3333ZM11.3333 15.75C10.9667 15.75 10.6667 16.0312 10.6667 16.375C10.6667 16.7188 10.9667 17 11.3333 17H15.3333C15.7 17 16 16.7188 16 16.375C16 16.0312 15.7 15.75 15.3333 15.75H11.3333ZM8.66667 17.3125C8.93188 17.3125 9.18624 17.2137 9.37377 17.0379C9.56131 16.8621 9.66667 16.6236 9.66667 16.375C9.66667 16.1264 9.56131 15.8879 9.37377 15.7121C9.18624 15.5363 8.93188 15.4375 8.66667 15.4375C8.40145 15.4375 8.1471 15.5363 7.95956 15.7121C7.77202 15.8879 7.66667 16.1264 7.66667 16.375C7.66667 16.6236 7.77202 16.8621 7.95956 17.0379C8.1471 17.2137 8.40145 17.3125 8.66667 17.3125Z" fill="var(--fill-0, #7008E7)"/>
</g>
</svg>
