<svg preserveAspectRatio="xMidYMid meet" width="100%" height="100%" overflow="visible" style="display: block;" viewBox="0 0 13.3333 10.8333" fill="none" xmlns="http://www.w3.org/2000/svg">
<g id="person-video2">
<path id="Path 4079" d="M8.33333 6.70833C8.74538 6.70833 9.14817 6.58615 9.49077 6.35723C9.83337 6.12831 10.1004 5.80294 10.2581 5.42226C10.4158 5.04158 10.457 4.62269 10.3766 4.21856C10.2963 3.81443 10.0978 3.44322 9.80647 3.15186C9.51511 2.8605 9.1439 2.66208 8.73977 2.5817C8.33564 2.50131 7.91676 2.54257 7.53608 2.70025C7.1554 2.85793 6.83002 3.12496 6.60111 3.46756C6.37219 3.81016 6.25 4.21296 6.25 4.625C6.25 5.17753 6.46949 5.70744 6.86019 6.09814C7.2509 6.48884 7.7808 6.70833 8.33333 6.70833Z" fill="var(--fill-0, #334155)"/>
<path id="Path 4080" d="M1.66667 0C1.22464 0 0.800716 0.175595 0.488155 0.488155C0.175595 0.800716 0 1.22464 0 1.66667L0 9.16667C0 9.60869 0.175595 10.0326 0.488155 10.3452C0.800716 10.6577 1.22464 10.8333 1.66667 10.8333H11.6667C12.1087 10.8333 12.5326 10.6577 12.8452 10.3452C13.1577 10.0326 13.3333 9.60869 13.3333 9.16667V1.66667C13.3333 1.22464 13.1577 0.800716 12.8452 0.488155C12.5326 0.175595 12.1087 0 11.6667 0H1.66667ZM0.833333 1.66667C0.833333 1.44565 0.921131 1.23369 1.07741 1.07741C1.23369 0.921131 1.44565 0.833333 1.66667 0.833333H3.33333V2.5H0.833333V1.66667ZM4.16667 10V0.833333H11.6667C11.8877 0.833333 12.0996 0.921131 12.2559 1.07741C12.4122 1.23369 12.5 1.44565 12.5 1.66667V9.16667C12.5001 9.27962 12.4773 9.39143 12.4329 9.49529C12.3885 9.59915 12.3234 9.69289 12.2417 9.77083C11.9026 9.03654 11.3454 8.42458 10.6461 8.01825C9.94675 7.61192 9.13919 7.43096 8.33333 7.5C5.8025 7.5 4.7125 8.94167 4.33333 10H4.16667ZM0.833333 8.33333H3.33333V10H1.66667C1.44565 10 1.23369 9.9122 1.07741 9.75592C0.921131 9.59964 0.833333 9.38768 0.833333 9.16667V8.33333ZM3.33333 7.5H0.833333V5.83333H3.33333V7.5ZM3.33333 5H0.833333V3.33333H3.33333V5Z" fill="var(--fill-0, #334155)"/>
</g>
</svg>
