<svg preserveAspectRatio="none" width="100%" height="100%" overflow="visible" style="display: block;" viewBox="0 0 24 24" fill="none" xmlns="http://www.w3.org/2000/svg">
<g id="chart-tree-map-regular-full 1">
<path id="Vector" d="M8.4 6.6V9.3H4.2V6.6H8.4ZM4.2 4.8C3.20625 4.8 2.4 5.60625 2.4 6.6V9.3C2.4 10.2937 3.20625 11.1 4.2 11.1H8.4C9.39375 11.1 10.2 10.2937 10.2 9.3V6.6C10.2 5.60625 9.39375 4.8 8.4 4.8H4.2ZM8.4 14.7V17.4H4.2V14.7H8.4ZM4.2 12.9C3.20625 12.9 2.4 13.7062 2.4 14.7V17.4C2.4 18.3937 3.20625 19.2 4.2 19.2H8.4C9.39375 19.2 10.2 18.3937 10.2 17.4V14.7C10.2 13.7062 9.39375 12.9 8.4 12.9H4.2ZM13.5 4.8C12.6713 4.8 12 5.47125 12 6.3V6.9C12 7.72875 12.6713 8.4 13.5 8.4H20.1C20.9288 8.4 21.6 7.72875 21.6 6.9V6.3C21.6 5.47125 20.9288 4.8 20.1 4.8H13.5ZM12 11.7V12.3C12 13.1287 12.6713 13.8 13.5 13.8H20.1C20.9288 13.8 21.6 13.1287 21.6 12.3V11.7C21.6 10.8712 20.9288 10.2 20.1 10.2H13.5C12.6713 10.2 12 10.8712 12 11.7ZM13.5 15.6C12.6713 15.6 12 16.2712 12 17.1V17.7C12 18.5287 12.6713 19.2 13.5 19.2H20.1C20.9288 19.2 21.6 18.5287 21.6 17.7V17.1C21.6 16.2712 20.9288 15.6 20.1 15.6H13.5Z" fill="var(--fill-0, #334155)"/>
</g>
</svg>
