<svg preserveAspectRatio="none" width="100%" height="100%" overflow="visible" style="display: block;" viewBox="0 0 20 23" fill="none" xmlns="http://www.w3.org/2000/svg">
<g id="headset">
<path id="Primary" d="M4.53437 10.3812C4.84062 7.63437 7.17188 5.5 10 5.5C12.8281 5.5 15.1594 7.63437 15.4656 10.3812C15.0312 10.1375 14.5312 10 14 10H13.5C12.6719 10 12 10.6719 12 11.5V14.5C12 15.3281 12.6719 16 13.5 16H14C14.5469 16 15.0594 15.8531 15.5 15.6V16.2531C15.5 17.4969 14.4906 18.5031 13.25 18.5031H12C12 17.675 11.3281 17.0031 10.5 17.0031H9.5C8.67188 17.0031 8 17.675 8 18.5031C8 19.3313 8.67188 20.0031 9.5 20.0031C10.875 20.0031 10.625 20.0031 13.2469 20.0063C15.3187 20.0063 17 18.3281 17 16.2563V11C17 7.13438 13.8656 4 10 4C6.13438 4 3 7.13438 3 11V13C3 14.6562 4.34375 16 6 16H6.5C7.32812 16 8 15.3281 8 14.5V11.5C8 10.6719 7.32812 10 6.5 10H6C5.46875 10 4.96875 10.1375 4.53437 10.3812ZM14 11.5C14.8281 11.5 15.5 12.1719 15.5 13C15.5 13.8281 14.8281 14.5 14 14.5H13.5V11.5H14ZM4.5 13C4.5 12.1719 5.17188 11.5 6 11.5H6.5V14.5H6C5.17188 14.5 4.5 13.8281 4.5 13Z" fill="var(--fill-0, #334155)"/>
</g>
</svg>
