<svg preserveAspectRatio="none" width="100%" height="100%" overflow="visible" style="display: block;" viewBox="0 0 24 24" fill="none" xmlns="http://www.w3.org/2000/svg">
<g id="list-radio 1">
<path id="Vector" d="M5.375 4C4.74511 4 4.14102 4.25587 3.69562 4.71131C3.25022 5.16676 3 5.78447 3 6.42857C3 7.07267 3.25022 7.69039 3.69562 8.14583C4.14102 8.60128 4.74511 8.85714 5.375 8.85714C6.00489 8.85714 6.60898 8.60128 7.05438 8.14583C7.49978 7.69039 7.75 7.07267 7.75 6.42857C7.75 5.78447 7.49978 5.16676 7.05438 4.71131C6.60898 4.25587 6.00489 4 5.375 4ZM9.82812 5.51786C9.33457 5.51786 8.9375 5.92388 8.9375 6.42857C8.9375 6.93326 9.33457 7.33929 9.82812 7.33929H21.1094C21.6029 7.33929 22 6.93326 22 6.42857C22 5.92388 21.6029 5.51786 21.1094 5.51786H9.82812ZM9.82812 11.5893C9.33457 11.5893 8.9375 11.9953 8.9375 12.5C8.9375 13.0047 9.33457 13.4107 9.82812 13.4107H21.1094C21.6029 13.4107 22 13.0047 22 12.5C22 11.9953 21.6029 11.5893 21.1094 11.5893H9.82812ZM9.82812 17.6607C9.33457 17.6607 8.9375 18.0667 8.9375 18.5714C8.9375 19.0761 9.33457 19.4821 9.82812 19.4821H21.1094C21.6029 19.4821 22 19.0761 22 18.5714C22 18.0667 21.6029 17.6607 21.1094 17.6607H9.82812ZM5.375 13.4107C5.13879 13.4107 4.91226 13.3148 4.74523 13.144C4.57821 12.9732 4.48438 12.7415 4.48438 12.5C4.48438 12.2585 4.57821 12.0268 4.74523 11.856C4.91226 11.6852 5.13879 11.5893 5.375 11.5893C5.61121 11.5893 5.83774 11.6852 6.00477 11.856C6.17179 12.0268 6.26562 12.2585 6.26562 12.5C6.26562 12.7415 6.17179 12.9732 6.00477 13.144C5.83774 13.3148 5.61121 13.4107 5.375 13.4107ZM5.375 10.0714C4.74511 10.0714 4.14102 10.3273 3.69562 10.7827C3.25022 11.2382 3 11.8559 3 12.5C3 13.1441 3.25022 13.7618 3.69562 14.2173C4.14102 14.6727 4.74511 14.9286 5.375 14.9286C6.00489 14.9286 6.60898 14.6727 7.05438 14.2173C7.49978 13.7618 7.75 13.1441 7.75 12.5C7.75 11.8559 7.49978 11.2382 7.05438 10.7827C6.60898 10.3273 6.00489 10.0714 5.375 10.0714ZM4.48438 18.5714C4.48438 18.3299 4.57821 18.0982 4.74523 17.9275C4.91226 17.7567 5.13879 17.6607 5.375 17.6607C5.61121 17.6607 5.83774 17.7567 6.00477 17.9275C6.17179 18.0982 6.26562 18.3299 6.26562 18.5714C6.26562 18.813 6.17179 19.0446 6.00477 19.2154C5.83774 19.3862 5.61121 19.4821 5.375 19.4821C5.13879 19.4821 4.91226 19.3862 4.74523 19.2154C4.57821 19.0446 4.48438 18.813 4.48438 18.5714ZM7.75 18.5714C7.75 17.9273 7.49978 17.3096 7.05438 16.8542C6.60898 16.3987 6.00489 16.1429 5.375 16.1429C4.74511 16.1429 4.14102 16.3987 3.69562 16.8542C3.25022 17.3096 3 17.9273 3 18.5714C3 19.2155 3.25022 19.8332 3.69562 20.2887C4.14102 20.7441 4.74511 21 5.375 21C6.00489 21 6.60898 20.7441 7.05438 20.2887C7.49978 19.8332 7.75 19.2155 7.75 18.5714Z" fill="var(--fill-0, #7008E7)"/>
</g>
</svg>
