<svg preserveAspectRatio="none" width="100%" height="100%" overflow="visible" style="display: block;" viewBox="0 0 24 24" fill="none" xmlns="http://www.w3.org/2000/svg">
<g id="user-gear 1">
<path id="Vector" d="M14.1556 7.7498C14.1556 5.13029 11.9749 3 9.29336 3C6.61183 3 4.43112 5.13029 4.43112 7.7498C4.43112 10.3693 6.61183 12.4996 9.29336 12.4996C11.9749 12.4996 14.1556 10.3693 14.1556 7.7498ZM9.29336 10.1247C7.953 10.1247 6.86224 9.05916 6.86224 7.7498C6.86224 6.44044 7.953 5.3749 9.29336 5.3749C10.6337 5.3749 11.7245 6.44044 11.7245 7.7498C11.7245 9.05916 10.6337 10.1247 9.29336 10.1247ZM19.8282 17.2494C19.8282 17.027 19.8071 16.8093 19.7666 16.5979L21 15.902L19.7844 13.8454L18.5494 14.542C18.2123 14.2602 17.8225 14.0377 17.3971 13.8897V12.4988H14.966V13.8897C14.5397 14.037 14.1499 14.2602 13.8136 14.542L12.5786 13.8454L11.363 15.902L12.5964 16.5979C12.5567 16.8093 12.5348 17.027 12.5348 17.2494C12.5348 17.4719 12.5559 17.6896 12.5964 17.9009L11.363 18.5968L12.5786 20.6534L13.8136 19.9568C14.1507 20.2386 14.5405 20.4611 14.966 20.6091V22H17.3971V20.6091C17.8233 20.4619 18.2131 20.2386 18.5494 19.9568L19.7844 20.6534L21 18.5968L19.7666 17.9009C19.8063 17.6896 19.8282 17.4719 19.8282 17.2494ZM16.1815 18.4369C15.5113 18.4369 14.966 17.9041 14.966 17.2494C14.966 16.5947 15.5113 16.062 16.1815 16.062C16.8517 16.062 17.3971 16.5947 17.3971 17.2494C17.3971 17.9041 16.8517 18.4369 16.1815 18.4369ZM6.45705 14.0829H9.29336V16.4578H6.45705C5.34036 16.4578 4.43112 17.346 4.43112 18.4369V21.9992H2V18.4369C2 16.0358 3.99919 14.0829 6.45705 14.0829Z" fill="var(--fill-0, #7008E7)"/>
</g>
</svg>
