<svg preserveAspectRatio="none" width="100%" height="100%" overflow="visible" style="display: block;" viewBox="0 0 20 20" fill="none" xmlns="http://www.w3.org/2000/svg">
<g id="&#60;i class=&#34;fa-solid fa-chart-mixed&#34;&#62;&#60;/i&#62;">
<g id="Vector">
<path d="M17.625 4.78051C18.0562 4.43676 18.125 3.8055 17.7812 3.37425C17.4375 2.943 16.8062 2.87425 16.375 3.218L11.9812 6.73364L8.59998 4.19926C8.23436 3.92426 7.73123 3.93363 7.37498 4.21801L2.37499 8.21802C1.94374 8.56177 1.87499 9.19302 2.21874 9.62427C2.56249 10.0555 3.19373 10.1243 3.62498 9.78053L8.01873 6.26489L11.4 8.79927C11.7656 9.07427 12.2687 9.0649 12.625 8.78052L17.625 4.78051ZM6.99998 9.99927V15.9993C6.99998 16.5524 7.44686 16.9993 7.99998 16.9993C8.55311 16.9993 8.99998 16.5524 8.99998 15.9993V9.99927C8.99998 9.44615 8.55311 8.99928 7.99998 8.99928C7.44686 8.99928 6.99998 9.44615 6.99998 9.99927ZM2.99999 12.9993V15.9993C2.99999 16.5524 3.44686 16.9993 3.99998 16.9993C4.55311 16.9993 4.99998 16.5524 4.99998 15.9993V12.9993C4.99998 12.4462 4.55311 11.9993 3.99998 11.9993C3.44686 11.9993 2.99999 12.4462 2.99999 12.9993ZM12 10.9993C11.4469 10.9993 11 11.4462 11 11.9993V15.9993C11 16.5524 11.4469 16.9993 12 16.9993C12.5531 16.9993 13 16.5524 13 15.9993V11.9993C13 11.4462 12.5531 10.9993 12 10.9993ZM15 9.99927V15.9993C15 16.5524 15.4469 16.9993 16 16.9993C16.5531 16.9993 17 16.5524 17 15.9993V9.99927C17 9.44615 16.5531 8.99928 16 8.99928C15.4469 8.99928 15 9.44615 15 9.99927Z" fill="var(--fill-0, #334155)"/>
<path d="M14.3145 2.08054C13.7768 2.08054 13.3423 2.52276 13.3423 3.07012C13.3423 3.61749 13.7768 4.05971 14.3145 4.05971H15.1895L11.8657 6.7656L8.57841 4.25762C8.22294 3.98549 7.73379 3.99476 7.38743 4.27618L2.52632 8.23451C2.10705 8.57468 2.04021 9.19935 2.37441 9.62611C2.70861 10.0529 3.32233 10.1209 3.7416 9.78073L8.0133 6.30173L11.3006 8.80971C11.6561 9.08184 12.1452 9.07256 12.4916 8.79115L16.7451 5.32761V6.53366C16.7451 7.08103 17.1795 7.52325 17.7173 7.52325C18.2551 7.52325 18.6895 7.08103 18.6895 6.53366V3.07012C18.6895 2.52276 18.2551 2.08054 17.7173 2.08054H14.3145Z" fill="var(--fill-0, #334155)"/>
</g>
</g>
</svg>
