<svg preserveAspectRatio="none" width="100%" height="100%" overflow="visible" style="display: block;" viewBox="0 0 24 24" fill="none" xmlns="http://www.w3.org/2000/svg">
<g id="cart-shopping-regular-full 1">
<path id="Vector" d="M2 3.81818C2 3.36477 2.36 3 2.80748 3H4.3316C5.24338 3 6.02394 3.66136 6.18544 4.56818L6.19889 4.63636H19.6535C20.498 4.63636 21.1339 5.41705 20.9758 6.25909L20.0875 10.9295C19.8184 12.3409 18.6004 13.3636 17.1806 13.3636H7.76675L7.93834 14.3284C8.00899 14.717 8.34208 15 8.73236 15H17.3421C17.7896 15 18.1496 15.3648 18.1496 15.8182C18.1496 16.2716 17.7896 16.6364 17.3421 16.6364H8.73236C7.56152 16.6364 6.55889 15.7875 6.3503 14.6216L4.59739 4.86136C4.57384 4.73182 4.46281 4.63636 4.3316 4.63636H2.80748C2.36 4.63636 2 4.27159 2 3.81818ZM7.47067 11.7273H17.1806C17.8266 11.7273 18.3817 11.2636 18.5029 10.6227L19.3238 6.27273H6.4916L7.47067 11.7273ZM8.99816 17.7273C9.88975 17.7273 10.6131 18.4602 10.6131 19.3636C10.6131 20.267 9.88975 21 8.99816 21C8.10656 21 7.3832 20.267 7.3832 19.3636C7.3832 18.4602 8.10656 17.7273 8.99816 17.7273ZM16.5346 17.7273C17.4262 17.7273 18.1496 18.4602 18.1496 19.3636C18.1496 20.267 17.4262 21 16.5346 21C15.643 21 14.9197 20.267 14.9197 19.3636C14.9197 18.4602 15.643 17.7273 16.5346 17.7273Z" fill="var(--fill-0, #7008E7)"/>
</g>
</svg>
