<svg preserveAspectRatio="none" width="100%" height="100%" overflow="visible" style="display: block;" viewBox="0 0 24 24" fill="none" xmlns="http://www.w3.org/2000/svg">
<g id="cash-register-regular-full 1">
<path id="Vector" d="M6 2.4C4.67625 2.4 3.6 3.47625 3.6 4.8C3.6 6.12375 4.67625 7.2 6 7.2H7.8V8.4H5.68125C4.48875 8.4 3.4725 9.2775 3.30375 10.4588L2.4225 16.6313C2.4075 16.7438 2.4 16.8563 2.4 16.9688V19.2C2.4 20.5238 3.47625 21.6 4.8 21.6H19.2C20.5238 21.6 21.6 20.5238 21.6 19.2V16.9688C21.6 16.8563 21.5925 16.74 21.5775 16.6313L20.6925 10.4588C20.5238 9.2775 19.5113 8.4 18.315 8.4H10.1963V7.2H11.9963C13.32 7.2 14.3963 6.12375 14.3963 4.8C14.3963 3.47625 13.3238 2.4 12 2.4H6ZM6 4.2H12C12.33 4.2 12.6 4.47 12.6 4.8C12.6 5.13 12.33 5.4 12 5.4H6C5.67 5.4 5.4 5.13 5.4 4.8C5.4 4.47 5.67 4.2 6 4.2ZM4.2 19.2V18.6H19.8V19.2C19.8 19.53 19.53 19.8 19.2 19.8H4.8C4.47 19.8 4.2 19.53 4.2 19.2ZM18.9113 10.7138L19.7813 16.8H4.21875L5.08875 10.7138C5.13 10.4175 5.385 10.2 5.68125 10.2H18.3188C18.6188 10.2 18.87 10.4213 18.9113 10.7138ZM6.6 11.1C6.10125 11.1 5.7 11.5013 5.7 12C5.7 12.4988 6.10125 12.9 6.6 12.9C7.09875 12.9 7.5 12.4988 7.5 12C7.5 11.5013 7.09875 11.1 6.6 11.1ZM9.3 12C9.3 12.4988 9.70125 12.9 10.2 12.9C10.6988 12.9 11.1 12.4988 11.1 12C11.1 11.5013 10.6988 11.1 10.2 11.1C9.70125 11.1 9.3 11.5013 9.3 12ZM8.4 14.1C7.90125 14.1 7.5 14.5013 7.5 15C7.5 15.4988 7.90125 15.9 8.4 15.9C8.89875 15.9 9.3 15.4988 9.3 15C9.3 14.5013 8.89875 14.1 8.4 14.1ZM12.9 12C12.9 12.4988 13.3013 12.9 13.8 12.9C14.2988 12.9 14.7 12.4988 14.7 12C14.7 11.5013 14.2988 11.1 13.8 11.1C13.3013 11.1 12.9 11.5013 12.9 12ZM12 14.1C11.5013 14.1 11.1 14.5013 11.1 15C11.1 15.4988 11.5013 15.9 12 15.9C12.4988 15.9 12.9 15.4988 12.9 15C12.9 14.5013 12.4988 14.1 12 14.1ZM16.5 12C16.5 12.4988 16.9013 12.9 17.4 12.9C17.8988 12.9 18.3 12.4988 18.3 12C18.3 11.5013 17.8988 11.1 17.4 11.1C16.9013 11.1 16.5 11.5013 16.5 12ZM15.6 14.1C15.1013 14.1 14.7 14.5013 14.7 15C14.7 15.4988 15.1013 15.9 15.6 15.9C16.0988 15.9 16.5 15.4988 16.5 15C16.5 14.5013 16.0988 14.1 15.6 14.1Z" fill="var(--fill-0, #334155)"/>
</g>
</svg>
