<svg preserveAspectRatio="none" width="100%" height="100%" overflow="visible" style="display: block;" viewBox="0 0 24 24" fill="none" xmlns="http://www.w3.org/2000/svg">
<g id="shipping-Settings">
<path id="Vector" d="M17.8333 5.9307H16.1025C15.9025 4.78627 15.2375 3.77244 14.2392 3.13199C13.85 2.88251 13.3358 2.99721 13.0883 3.38733C12.8408 3.77746 12.9542 4.29484 13.3425 4.54348C14.0667 5.00812 14.5 5.8001 14.5 6.66239V15.9769H5.33333C4.41417 15.9769 3.66667 15.2259 3.66667 14.3025V13.4653C3.66667 13.0032 3.29417 12.6282 2.83333 12.6282C2.3725 12.6282 2 13.0032 2 13.4653V14.3025C2 15.8764 3.08667 17.2 4.54583 17.5567C4.51583 17.7249 4.5 17.8966 4.5 18.0699C4.5 19.6856 5.80833 21 7.41667 21C9.025 21 10.3333 19.6856 10.3333 18.0699C10.3333 17.9284 10.3225 17.7894 10.3025 17.6513H13.6975C13.6775 17.7894 13.6667 17.9284 13.6667 18.0699C13.6667 19.6856 14.975 21 16.5833 21C18.1917 21 19.5 19.6856 19.5 18.0699C19.5 17.8966 19.4842 17.7249 19.4542 17.5567C20.9133 17.2 22 15.8764 22 14.3025V10.1166C22 7.8085 20.1308 5.9307 17.8333 5.9307ZM7.41667 19.3256C6.7275 19.3256 6.16667 18.7622 6.16667 18.0699C6.16667 17.9116 6.1975 17.7718 6.2425 17.6513H8.59167C8.63667 17.7718 8.6675 17.9116 8.6675 18.0699C8.6675 18.7622 8.10583 19.3256 7.41667 19.3256ZM16.5833 19.3256C15.8942 19.3256 15.3333 18.7622 15.3333 18.0699C15.3333 17.9116 15.3642 17.7718 15.4092 17.6513H17.7583C17.8033 17.7718 17.8342 17.9116 17.8342 18.0699C17.8342 18.7622 17.2725 19.3256 16.5833 19.3256ZM20.3333 14.3025C20.3333 15.2259 19.5858 15.9769 18.6667 15.9769H16.1667V12.6282H20.3333V14.3025ZM20.3333 10.9538H16.1667V7.60506H17.8333C19.2117 7.60506 20.3333 8.73191 20.3333 10.1166V10.9538Z" fill="var(--fill-0, #334155)"/>
<path id="Vector_2" d="M11.6621 7.5C11.662 7.24712 11.6388 6.99477 11.5927 6.74604L13 5.94167L11.6126 3.55833L10.2049 4.36454C9.81624 4.03497 9.36959 3.77922 8.88737 3.61013V2H6.11263V3.61013C5.63041 3.77922 5.18376 4.03497 4.79509 4.36454L3.38737 3.55833L2 5.94167L3.40726 6.74604C3.31482 7.24451 3.31482 7.75549 3.40726 8.25396L2 9.05833L3.38737 11.4417L4.79509 10.6359C5.1838 10.9653 5.63044 11.2209 6.11263 11.3899V13H8.88737V11.3899C9.36959 11.2208 9.81624 10.965 10.2049 10.6355L11.6126 11.4417L13 9.05833L11.5927 8.25396C11.6388 8.00523 11.662 7.75288 11.6621 7.5ZM8.88737 7.5C8.88737 7.77195 8.806 8.03779 8.65356 8.26391C8.50111 8.49003 8.28443 8.66626 8.03092 8.77033C7.77741 8.87441 7.49846 8.90163 7.22934 8.84858C6.96021 8.79553 6.71301 8.66457 6.51898 8.47227C6.32495 8.27997 6.19282 8.03497 6.13929 7.76825C6.08575 7.50153 6.11323 7.22506 6.21824 6.97381C6.32324 6.72256 6.50107 6.50782 6.72922 6.35673C6.95737 6.20564 7.2256 6.125 7.5 6.125C7.86795 6.125 8.22084 6.26987 8.48102 6.52773C8.7412 6.78559 8.88737 7.13533 8.88737 7.5Z" fill="var(--fill-0, #334155)"/>
</g>
</svg>
