<svg preserveAspectRatio="none" width="100%" height="100%" overflow="visible" style="display: block;" viewBox="0 0 16 16" fill="none" xmlns="http://www.w3.org/2000/svg">
<g id="box-isometric" clip-path="url(#clip0_0_54)">
<path id="Primary" d="M7.25 8.44062L2 5.525V10.8219C2 11.275 2.24687 11.6937 2.64375 11.9156L7.25 14.475V8.44062ZM4.54375 3.02813L2.57188 4.125L8.00313 7.14063L9.94375 6.0625L4.60938 3.0625L4.54688 3.02813H4.54375ZM6.08437 2.17188L11.4812 5.20625L13.4344 4.12187L8.60938 1.44062C8.23125 1.23125 7.77188 1.23125 7.39375 1.44062L6.08125 2.175L6.08437 2.17188ZM8.75 8.44062V14.475L13.3562 11.9156C13.7531 11.6937 14 11.2781 14 10.8219V5.52187L8.75 8.4375V8.44062ZM9.33438 15.8656C8.50313 16.3281 7.49375 16.3281 6.6625 15.8656L1.9125 13.2281C1.04063 12.7437 0.5 11.8219 0.5 10.8219V5.03125C0.5 4.12188 0.99375 3.2875 1.78437 2.84688L6.6625 0.134375C7.49375 -0.328125 8.50313 -0.328125 9.33438 0.134375L14.2125 2.84375C15.0062 3.28438 15.5 4.12188 15.5 5.03125V10.825C15.5 11.825 14.9594 12.7437 14.0844 13.2281L9.33438 15.8656Z" fill="var(--fill-0, #334155)"/>
</g>
<defs>
<clipPath id="clip0_0_54">
<rect width="16" height="16" fill="white"/>
</clipPath>
</defs>
</svg>
