<svg preserveAspectRatio="none" width="100%" height="100%" overflow="visible" style="display: block;" viewBox="0 0 24 24" fill="none" xmlns="http://www.w3.org/2000/svg">
<g id="tags 1">
<path id="Vector" d="M15.4739 3.28584C15.1107 2.90809 14.5171 2.90408 14.15 3.2778C13.7829 3.65152 13.7789 4.26234 14.1422 4.64008L19.1295 9.83603C20.4534 11.2144 20.4534 13.4286 19.1295 14.8069L14.7592 19.3599C14.396 19.7377 14.3999 20.3485 14.767 20.7222C15.1342 21.0959 15.7278 21.0919 16.091 20.7142L20.4651 16.1652C22.5116 14.0354 22.5116 10.6116 20.4651 8.48178L15.4739 3.28584ZM11.4786 3.75198C11.01 3.26976 10.3734 3.00052 9.70943 3.00052H3.87463C2.83968 3.00052 2 3.8645 2 4.92941V10.9371C2 11.6202 2.26167 12.2753 2.73033 12.7575L9.29154 19.5086C10.2679 20.5132 11.8496 20.5132 12.826 19.5086L18.0398 14.1439C19.0162 13.1392 19.0162 11.5117 18.0398 10.5071L11.4786 3.756V3.75198ZM3.87463 4.92941H9.71334C9.87737 4.92941 10.0375 4.99773 10.1547 5.11828L16.7159 11.8694C16.958 12.1185 16.958 12.5284 16.7159 12.7776L11.5021 18.1423C11.2599 18.3915 10.8616 18.3915 10.6194 18.1423L4.05819 11.3912C3.94103 11.2706 3.87463 11.1059 3.87463 10.9371V4.92941ZM7.6239 7.50126C7.6239 7.16022 7.49223 6.83314 7.25786 6.59198C7.02348 6.35082 6.7056 6.21534 6.37415 6.21534C6.04269 6.21534 5.72481 6.35082 5.49043 6.59198C5.25606 6.83314 5.12439 7.16022 5.12439 7.50126C5.12439 7.84231 5.25606 8.16939 5.49043 8.41055C5.72481 8.65171 6.04269 8.78719 6.37415 8.78719C6.7056 8.78719 7.02348 8.65171 7.25786 8.41055C7.49223 8.16939 7.6239 7.84231 7.6239 7.50126Z" fill="var(--fill-0, #334155)"/>
</g>
</svg>
