<svg preserveAspectRatio="none" width="100%" height="100%" overflow="visible" style="display: block;" viewBox="0 0 20 20" fill="none" xmlns="http://www.w3.org/2000/svg">
<g id="ticket-perforated 1">
<path id="Vector" d="M2.91667 6.66667C2.91667 6.4375 3.10417 6.25 3.33333 6.25H16.6667C16.8958 6.25 17.0833 6.4375 17.0833 6.66667V7.57812C16.0052 7.85677 15.2083 8.83333 15.2083 10C15.2083 11.1667 16.0052 12.1432 17.0833 12.4219V13.3333C17.0833 13.5625 16.8958 13.75 16.6667 13.75H3.33333C3.10417 13.75 2.91667 13.5625 2.91667 13.3333V6.66667ZM3.33333 5C2.41406 5 1.66667 5.7474 1.66667 6.66667V13.3333C1.66667 14.2526 2.41406 15 3.33333 15H16.6667C17.5859 15 18.3333 14.2526 18.3333 13.3333V11.737C18.3333 11.4453 18 11.25 17.7083 11.25C17.0182 11.25 16.4583 10.6901 16.4583 10C16.4583 9.3099 17.0182 8.75 17.7083 8.75C18 8.75 18.3333 8.55469 18.3333 8.26302V6.66667C18.3333 5.7474 17.5859 5 16.6667 5H3.33333ZM13.3333 7.5C13.3333 7.38949 13.2894 7.28351 13.2113 7.20537C13.1332 7.12723 13.0272 7.08333 12.9167 7.08333C12.8062 7.08333 12.7002 7.12723 12.622 7.20537C12.5439 7.28351 12.5 7.38949 12.5 7.5C12.5 7.61051 12.5439 7.71649 12.622 7.79463C12.7002 7.87277 12.8062 7.91667 12.9167 7.91667C13.0272 7.91667 13.1332 7.87277 13.2113 7.79463C13.2894 7.71649 13.3333 7.61051 13.3333 7.5ZM13.3333 9.16667C13.3333 9.05616 13.2894 8.95018 13.2113 8.87204C13.1332 8.7939 13.0272 8.75 12.9167 8.75C12.8062 8.75 12.7002 8.7939 12.622 8.87204C12.5439 8.95018 12.5 9.05616 12.5 9.16667C12.5 9.27717 12.5439 9.38315 12.622 9.46129C12.7002 9.53943 12.8062 9.58333 12.9167 9.58333C13.0272 9.58333 13.1332 9.53943 13.2113 9.46129C13.2894 9.38315 13.3333 9.27717 13.3333 9.16667ZM12.9167 11.25C13.0272 11.25 13.1332 11.2061 13.2113 11.128C13.2894 11.0498 13.3333 10.9438 13.3333 10.8333C13.3333 10.7228 13.2894 10.6168 13.2113 10.5387C13.1332 10.4606 13.0272 10.4167 12.9167 10.4167C12.8062 10.4167 12.7002 10.4606 12.622 10.5387C12.5439 10.6168 12.5 10.7228 12.5 10.8333C12.5 10.9438 12.5439 11.0498 12.622 11.128C12.7002 11.2061 12.8062 11.25 12.9167 11.25ZM13.3333 12.5C13.3333 12.3895 13.2894 12.2835 13.2113 12.2054C13.1332 12.1272 13.0272 12.0833 12.9167 12.0833C12.8062 12.0833 12.7002 12.1272 12.622 12.2054C12.5439 12.2835 12.5 12.3895 12.5 12.5C12.5 12.6105 12.5439 12.7165 12.622 12.7946C12.7002 12.8728 12.8062 12.9167 12.9167 12.9167C13.0272 12.9167 13.1332 12.8728 13.2113 12.7946C13.2894 12.7165 13.3333 12.6105 13.3333 12.5Z" fill="var(--fill-0, #7008E7)"/>
</g>
</svg>
