<svg preserveAspectRatio="none" width="100%" height="100%" overflow="visible" style="display: block;" viewBox="0 0 16 16" fill="none" xmlns="http://www.w3.org/2000/svg">
<g id="store">
<path id="Primary" d="M0.934375 2.55938C1.2625 1.625 2.14375 1 3.13438 1H12.8906C13.8812 1 14.7625 1.625 15.0906 2.55938L15.6656 4.20312C16.0094 5.1875 15.6969 6.2 15.0125 6.84062V12.7531C15.0125 13.9969 14.0062 15.0031 12.7625 15.0031H3.2625C2.01875 15.0031 1.0125 13.9969 1.0125 12.7531V6.84062C0.328125 6.2 0.015625 5.1875 0.359375 4.20312L0.934375 2.55938ZM2.5125 7.49375V10H13.5125V7.49375C13.45 7.49688 13.3906 7.5 13.3281 7.5C12.6469 7.5 12.0219 7.22187 11.5719 6.77187C11.1156 7.22187 10.4906 7.5 9.79375 7.5C9.1 7.5 8.46875 7.21875 8.0125 6.76562C7.55625 7.21875 6.925 7.5 6.23125 7.5C5.53437 7.5 4.90938 7.22187 4.45313 6.77187C4.00313 7.225 3.38125 7.5 2.69688 7.5C2.63438 7.5 2.57188 7.49688 2.50938 7.49375H2.5125ZM5.44063 2.5L5.20313 4.86562C5.14375 5.47187 5.61875 6 6.22813 6C6.79688 6 7.25938 5.5375 7.25938 4.96875V2.5H5.4375H5.44063ZM8.7625 4.96875C8.7625 5.5375 9.225 6 9.79375 6C10.4031 6 10.8813 5.47187 10.8188 4.86562L10.5812 2.5H8.75937V4.96875H8.7625ZM12.3531 5.11875C12.4031 5.61875 12.825 6 13.325 6C14 6 14.4719 5.33437 14.2469 4.7L13.675 3.05625C13.5594 2.72188 13.2437 2.5 12.8906 2.5H12.0906L12.3531 5.11875ZM2.7 6C3.20312 6 3.62187 5.61875 3.67187 5.11875L3.93437 2.5H3.13438C2.78125 2.5 2.46875 2.72188 2.35 3.05625L1.775 4.7C1.55313 5.3375 2.025 6 2.69688 6H2.7ZM2.5125 12.75C2.5125 13.1656 2.84687 13.5 3.2625 13.5H12.7625C13.1781 13.5 13.5125 13.1656 13.5125 12.75V11.5H2.5125V12.75Z" fill="var(--fill-0, #334155)"/>
</g>
</svg>
