<svg preserveAspectRatio="none" width="100%" height="100%" overflow="visible" style="display: block;" viewBox="0 0 20 20" fill="none" xmlns="http://www.w3.org/2000/svg">
<g id="gear">
<path id="Primary" d="M8.42188 4.89687L8.85 3H11.15L11.5781 4.89687C11.6313 5.12812 11.7906 5.32188 12.0094 5.41875C12.3469 5.56875 12.6656 5.75312 12.9594 5.96875C13.15 6.10938 13.4 6.15313 13.6281 6.08125L15.4875 5.50313L16.6375 7.49687L15.2063 8.81875C15.0313 8.98125 14.9437 9.21562 14.9688 9.45C15.0094 9.80937 15.0094 10.1906 14.9688 10.55C14.9437 10.7875 15.0313 11.0219 15.2063 11.1812L16.6375 12.5031L15.4875 14.4969L13.6281 13.9187C13.4 13.8469 13.1531 13.8906 12.9594 14.0312C12.6656 14.2469 12.3469 14.4344 12.0094 14.5813C11.7906 14.6781 11.6313 14.8719 11.5781 15.1031L11.15 17H8.85L8.42188 15.1031C8.36875 14.8719 8.20937 14.6781 7.99062 14.5813C7.65312 14.4313 7.33438 14.2469 7.04063 14.0312C6.85 13.8906 6.6 13.8469 6.37187 13.9187L4.5125 14.4969L3.3625 12.5031L4.79375 11.1812C4.96875 11.0187 5.05625 10.7844 5.03125 10.55C4.99063 10.1906 4.99063 9.80937 5.03125 9.45C5.05625 9.2125 4.96875 8.97812 4.79375 8.81875L3.3625 7.49687L4.5125 5.50313L6.37187 6.08125C6.6 6.15313 6.84688 6.10938 7.04063 5.96875C7.33438 5.75312 7.65312 5.56563 7.99062 5.41875C8.20937 5.32188 8.36875 5.12812 8.42188 4.89687ZM8.65 1.5C8.06563 1.5 7.55938 1.90625 7.43125 2.475L7.0375 4.2125C6.84062 4.3125 6.65313 4.42188 6.46875 4.54063L4.76875 4.0125C4.20937 3.8375 3.60625 4.075 3.31563 4.58125L1.96563 6.91875C1.675 7.425 1.77188 8.06563 2.2 8.4625L3.50938 9.67188C3.5 9.8875 3.5 10.1094 3.50938 10.3281L2.2 11.5375C1.77188 11.9344 1.67188 12.575 1.96563 13.0813L3.31563 15.4187C3.60625 15.925 4.2125 16.1594 4.76875 15.9875L6.47188 15.4594C6.65625 15.5781 6.84375 15.6875 7.04063 15.7875L7.43437 17.525C7.5625 18.0937 8.06875 18.5 8.65312 18.5H11.3531C11.9375 18.5 12.4437 18.0937 12.5719 17.525L12.9656 15.7875C13.1625 15.6875 13.35 15.5781 13.5344 15.4594L15.2375 15.9875C15.7969 16.1625 16.4 15.925 16.6906 15.4187L18.0406 13.0813C18.3312 12.575 18.2344 11.9344 17.8062 11.5375L16.4969 10.3281C16.5062 10.1125 16.5062 9.89062 16.4969 9.67188L17.8062 8.4625C18.2344 8.06563 18.3312 7.425 18.0406 6.91875L16.6875 4.58125C16.3938 4.075 15.7906 3.84063 15.2344 4.0125L13.5312 4.54063C13.3469 4.42188 13.1594 4.3125 12.9625 4.2125L12.5719 2.475C12.4406 1.90625 11.9344 1.5 11.35 1.5H8.65ZM11.5 10C11.5 10.3978 11.342 10.7794 11.0607 11.0607C10.7794 11.342 10.3978 11.5 10 11.5C9.60218 11.5 9.22064 11.342 8.93934 11.0607C8.65804 10.7794 8.5 10.3978 8.5 10C8.5 9.60218 8.65804 9.22064 8.93934 8.93934C9.22064 8.65804 9.60218 8.5 10 8.5C10.3978 8.5 10.7794 8.65804 11.0607 8.93934C11.342 9.22064 11.5 9.60218 11.5 10ZM10 7C9.20435 7 8.44129 7.31607 7.87868 7.87868C7.31607 8.44129 7 9.20435 7 10C7 10.7956 7.31607 11.5587 7.87868 12.1213C8.44129 12.6839 9.20435 13 10 13C10.7956 13 11.5587 12.6839 12.1213 12.1213C12.6839 11.5587 13 10.7956 13 10C13 9.20435 12.6839 8.44129 12.1213 7.87868C11.5587 7.31607 10.7956 7 10 7Z" fill="var(--fill-0, #334155)"/>
</g>
</svg>
